# xmcd CD database file
#
# Track frame offsets:
#	150
#	14804
#	29480
#	40495
#	51472
#	62498
#	76186
#	88743
#	99239
#	117881
#	131043
#	143349
#	157030
#	169118
#	183823
#	195330
#	205803
#	218661
#
# Disc length: 3068 seconds
#
# Revision: 0
# Processed by: cddbd v1.5.2PL0 Copyright (c) Steve Scherf et al.
# Submitted via: CDex 1.79
#
DISCID=f30bfa12
DTITLE=Craig Duncan - Top Fiddle Solos
DYEAR=1986
DGENRE=Country
TTITLE0=Virginia Reel/Dusty Ridge
TTITLE1=Black Mountain Rag
TTITLE2=Happy Hollow Hornpipe
TTITLE3=Cottoneyed Joe
TTITLE4=Sweetheart Schottische
TTITLE5=Turkey Creek Hop/Rubber Dolly
TTITLE6=Indian Summer
TTITLE7=Sweet Brown Eyed Girl/Jole Blon
TTITLE8=Faded Love/Maiden's Prayer
TTITLE9=Bowstring Swing/Draggin' the Bow
TTITLE10=Blackeyed Suzie
TTITLE11=Flowers of the Dell
TTITLE12=Listen to the Mockingbird
TTITLE13=Wabash Cannonball
TTITLE14=B is for Bluegrass
TTITLE15=Four Feathers
TTITLE16=Rocky Ground
TTITLE17=Cajun Cookin'
EXTD=YEAR: 1986
EXTT0=
EXTT1=
EXTT2=
EXTT3=
EXTT4=
EXTT5=
EXTT6=
EXTT7=
EXTT8=
EXTT9=
EXTT10=
EXTT11=
EXTT12=
EXTT13=
EXTT14=
EXTT15=
EXTT16=
EXTT17=
PLAYORDER=
